<svg width="96" height="39" viewBox="0 0 96 39" fill="none" xmlns="http://www.w3.org/2000/svg">
<path d="M1.05469 0.890625C1.42188 0.890625 1.78516 0.871094 2.14453 0.832031C2.51172 0.792969 2.875 0.75 3.23438 0.703125C3.60156 0.648437 3.96484 0.601562 4.32422 0.5625C4.69141 0.523438 5.05859 0.503906 5.42578 0.503906C5.81641 0.503906 6.20703 0.554687 6.59766 0.65625C6.99609 0.757813 7.35547 0.917969 7.67578 1.13672C7.99609 1.34766 8.25391 1.61719 8.44922 1.94531C8.65234 2.26562 8.75391 2.64844 8.75391 3.09375C8.75391 3.50781 8.65625 3.90234 8.46094 4.27734C8.27344 4.65234 8.02734 4.98828 7.72266 5.28516C7.41797 5.58203 7.07422 5.83203 6.69141 6.03516C6.30859 6.23047 5.92578 6.35156 5.54297 6.39844C6.13672 6.44531 6.69141 6.56641 7.20703 6.76172C7.73047 6.95703 8.18359 7.22656 8.56641 7.57031C8.94922 7.90625 9.25 8.32031 9.46875 8.8125C9.6875 9.29688 9.79688 9.85938 9.79688 10.5C9.79688 11.0938 9.67188 11.6641 9.42188 12.2109C9.17188 12.75 8.83984 13.2266 8.42578 13.6406C8.01172 14.0547 7.53125 14.3867 6.98438 14.6367C6.44531 14.8789 5.87891 15 5.28516 15H1.05469L0.996094 14.9766L0.972656 14.9062C1.09766 14.6328 1.17188 14.3398 1.19531 14.0273C1.22656 13.7148 1.24219 13.4102 1.24219 13.1133V2.77734C1.24219 2.48047 1.22656 2.17969 1.19531 1.875C1.17188 1.57031 1.09766 1.28125 0.972656 1.00781L0.996094 0.925781L1.05469 0.890625ZM2.69531 14.3789C2.92188 14.4336 3.15234 14.4688 3.38672 14.4844C3.62891 14.4922 3.86719 14.4961 4.10156 14.4961C4.71875 14.4961 5.26562 14.4062 5.74219 14.2266C6.22656 14.0391 6.62891 13.7734 6.94922 13.4297C7.26953 13.0781 7.51172 12.6602 7.67578 12.1758C7.84766 11.6836 7.93359 11.1328 7.93359 10.5234C7.93359 9.91406 7.83594 9.37109 7.64062 8.89453C7.44531 8.41016 7.17188 8 6.82031 7.66406C6.46875 7.32812 6.04297 7.07422 5.54297 6.90234C5.05078 6.72266 4.50781 6.63281 3.91406 6.63281C3.70312 6.63281 3.49609 6.65625 3.29297 6.70312C3.08984 6.74219 2.89062 6.80078 2.69531 6.87891V14.3789ZM2.69531 6C2.89844 6.03906 3.09766 6.06641 3.29297 6.08203C3.48828 6.08984 3.6875 6.09375 3.89062 6.09375C4.28906 6.09375 4.68359 6.03125 5.07422 5.90625C5.46484 5.78125 5.8125 5.60156 6.11719 5.36719C6.42969 5.125 6.67969 4.83203 6.86719 4.48828C7.0625 4.14453 7.16016 3.75391 7.16016 3.31641C7.16016 2.95703 7.07812 2.64062 6.91406 2.36719C6.75 2.08594 6.53906 1.85156 6.28125 1.66406C6.02344 1.47656 5.73047 1.33594 5.40234 1.24219C5.08203 1.14062 4.75781 1.08984 4.42969 1.08984C4.13281 1.08984 3.83984 1.11719 3.55078 1.17188C3.26172 1.22656 2.97656 1.29688 2.69531 1.38281V6ZM20.2758 15L20.2055 14.9297C20.2055 14.4297 20.0375 14 19.7016 13.6406L13.6547 7.03125V13.9102C13.6547 14.082 13.6664 14.2539 13.6898 14.4258C13.7211 14.5977 13.7836 14.7578 13.8773 14.9062V14.9766C13.8461 14.9922 13.8188 15 13.7953 15H12.0023C11.9945 15 11.9789 14.9961 11.9555 14.9883C11.9398 14.9805 11.9281 14.9766 11.9203 14.9766V14.9062C12.0141 14.75 12.0805 14.5898 12.1195 14.4258C12.1586 14.2617 12.1781 14.0898 12.1781 13.9102V2.96484C12.1781 2.64453 12.1508 2.32813 12.0961 2.01562C12.0492 1.70312 11.9477 1.40625 11.7914 1.125V1.04297L11.8734 1.00781C12.2094 1.00781 12.5453 0.992188 12.8813 0.960938C13.225 0.921875 13.5609 0.878906 13.8891 0.832031C14.225 0.785156 14.5609 0.746094 14.8969 0.714844C15.2328 0.675781 15.5727 0.65625 15.9164 0.65625C16.4633 0.65625 17.0023 0.699219 17.5336 0.785156C18.0727 0.863281 18.557 1.01953 18.9867 1.25391C19.4164 1.48828 19.7641 1.8125 20.0297 2.22656C20.2953 2.64062 20.4281 3.17969 20.4281 3.84375C20.4281 4.48438 20.3109 5.01953 20.0766 5.44922C19.8422 5.87891 19.5297 6.23047 19.1391 6.50391C18.7484 6.77734 18.2992 6.98438 17.7914 7.125C17.2914 7.26562 16.768 7.37109 16.2211 7.44141L22.8539 14.8828L22.8773 14.9531L22.7953 15H20.2758ZM15.7523 1.24219C15.3773 1.24219 15.0141 1.30078 14.6625 1.41797C14.3188 1.52734 13.9828 1.66016 13.6547 1.81641V6.70312C13.9047 6.75781 14.1547 6.80078 14.4047 6.83203C14.6625 6.86328 14.9203 6.87891 15.1781 6.87891C15.6078 6.87891 16.0336 6.81641 16.4555 6.69141C16.8773 6.56641 17.2523 6.38281 17.5805 6.14062C17.9164 5.89844 18.1859 5.59766 18.3891 5.23828C18.6 4.87109 18.7055 4.44531 18.7055 3.96094C18.7055 3.5 18.6313 3.09766 18.4828 2.75391C18.3422 2.41016 18.143 2.12891 17.8852 1.91016C17.6273 1.68359 17.3148 1.51562 16.9477 1.40625C16.5883 1.29688 16.1898 1.24219 15.7523 1.24219ZM26.1141 13.1133C26.1141 13.2383 26.1141 13.3828 26.1141 13.5469C26.1141 13.7031 26.118 13.8633 26.1258 14.0273C26.1414 14.1914 26.1648 14.3516 26.1961 14.5078C26.2273 14.6641 26.2703 14.7969 26.325 14.9062V14.9766L26.3133 15H24.4852C24.4773 15 24.4656 14.9961 24.45 14.9883C24.4344 14.9805 24.4227 14.9766 24.4148 14.9766V14.9062C24.4617 14.7969 24.5008 14.6641 24.532 14.5078C24.5711 14.3516 24.5984 14.1914 24.6141 14.0273C24.6297 13.8633 24.6414 13.6992 24.6492 13.5352C24.657 13.3711 24.6609 13.2305 24.6609 13.1133V2.77734C24.6609 2.66016 24.657 2.52344 24.6492 2.36719C24.6414 2.20312 24.6297 2.03516 24.6141 1.86328C24.5984 1.69141 24.5711 1.53125 24.532 1.38281C24.5008 1.22656 24.4617 1.09375 24.4148 0.984375V0.914062C24.4227 0.914062 24.4344 0.910156 24.45 0.902344C24.4656 0.894531 24.4773 0.890625 24.4852 0.890625H26.2781L26.3133 0.914062H26.325V0.984375C26.2781 1.10156 26.2391 1.23828 26.2078 1.39453C26.1766 1.55078 26.1531 1.71094 26.1375 1.875C26.1297 2.03125 26.1219 2.19141 26.1141 2.35547C26.1141 2.51172 26.1141 2.65234 26.1141 2.77734V13.1133ZM36.3937 1.42969C35.7609 1.42969 35.1594 1.51953 34.5891 1.69922C34.0266 1.87109 33.507 2.11328 33.0305 2.42578C32.5539 2.73047 32.1242 3.10156 31.7414 3.53906C31.3664 3.96875 31.0461 4.44141 30.7805 4.95703C30.5148 5.46484 30.3117 6.01172 30.1711 6.59766C30.0305 7.17578 29.9602 7.76953 29.9602 8.37891C29.9602 9.26172 30.1086 10.082 30.4055 10.8398C30.7023 11.5898 31.1164 12.2422 31.6477 12.7969C32.1789 13.3438 32.8156 13.7734 33.5578 14.0859C34.3 14.3984 35.1164 14.5547 36.007 14.5547C36.3664 14.5547 36.7336 14.5156 37.1086 14.4375C37.4836 14.3594 37.8508 14.2539 38.2102 14.1211C38.5695 13.9805 38.9172 13.8164 39.2531 13.6289C39.5891 13.4336 39.8937 13.2227 40.1672 12.9961V9.39844C40.1672 9.04688 40.0773 8.71484 39.8977 8.40234V8.33203C39.9055 8.33203 39.9172 8.32812 39.9328 8.32031C39.9562 8.3125 39.9719 8.30859 39.9797 8.30859H41.7727L41.8078 8.33203V8.40234C41.7297 8.55859 41.675 8.72266 41.6437 8.89453C41.6203 9.05859 41.6086 9.22656 41.6086 9.39844V12.1172C41.6086 12.2656 41.6125 12.3867 41.6203 12.4805C41.6281 12.5664 41.6437 12.6484 41.6672 12.7266C41.6906 12.8047 41.7219 12.8867 41.7609 12.9727C41.8 13.0586 41.8469 13.1641 41.9016 13.2891L41.8664 13.3477C41.4914 13.457 41.1437 13.5859 40.8234 13.7344C40.5031 13.8828 40.1945 14.0352 39.8977 14.1914C39.6086 14.3477 39.3195 14.5039 39.0305 14.6602C38.7414 14.8086 38.4406 14.9414 38.1281 15.0586C37.8156 15.1836 37.4797 15.2812 37.1203 15.3516C36.7609 15.4297 36.3664 15.4688 35.9367 15.4688C34.9133 15.4688 33.9367 15.3008 33.007 14.9648C32.0773 14.6211 31.257 14.1406 30.5461 13.5234C29.843 12.8984 29.2805 12.1484 28.8586 11.2734C28.4445 10.3984 28.2375 9.42578 28.2375 8.35547C28.2375 7.62109 28.3352 6.92188 28.5305 6.25781C28.7258 5.58594 28.9992 4.96484 29.3508 4.39453C29.7102 3.82422 30.1359 3.30859 30.6281 2.84766C31.1281 2.38672 31.675 1.99609 32.2687 1.67578C32.8625 1.34766 33.4992 1.09766 34.1789 0.925781C34.8586 0.746094 35.5578 0.65625 36.2766 0.65625C36.6047 0.65625 36.9328 0.683594 37.2609 0.738281C37.5891 0.792969 37.9133 0.855469 38.2336 0.925781C38.5539 0.996094 38.8742 1.07031 39.1945 1.14844C39.5227 1.21875 39.8508 1.27344 40.1789 1.3125L40.2609 1.37109L40.4602 2.625L40.4016 2.71875H40.3547C39.7844 2.29688 39.1594 1.97656 38.4797 1.75781C37.8 1.53906 37.1047 1.42969 36.3937 1.42969ZM45.8883 7.03125H51.7945V2.77734C51.7945 2.66016 51.7906 2.52344 51.7828 2.36719C51.775 2.20312 51.7633 2.03516 51.7477 1.86328C51.732 1.69141 51.7047 1.53125 51.6656 1.38281C51.6344 1.22656 51.5953 1.09375 51.5484 0.984375V0.914062C51.5563 0.914062 51.568 0.910156 51.5836 0.902344C51.5992 0.894531 51.6109 0.890625 51.6188 0.890625H53.4117L53.4586 0.914062H53.482V0.984375C53.4273 1.10156 53.3844 1.23828 53.3531 1.39453C53.3297 1.54297 53.3102 1.69922 53.2945 1.86328C53.2789 2.02734 53.2672 2.1875 53.2594 2.34375C53.2594 2.5 53.2594 2.64453 53.2594 2.77734V13.1133C53.2594 13.2383 53.2594 13.3828 53.2594 13.5469C53.2672 13.7031 53.275 13.8633 53.2828 14.0273C53.2984 14.1914 53.3219 14.3516 53.3531 14.5078C53.3844 14.6641 53.4273 14.7969 53.482 14.9062V14.9766L53.4586 15H51.6188C51.6109 15 51.5992 14.9961 51.5836 14.9883C51.568 14.9805 51.5563 14.9766 51.5484 14.9766V14.9062C51.5953 14.7969 51.6344 14.6641 51.6656 14.5078C51.7047 14.3516 51.732 14.1914 51.7477 14.0273C51.7633 13.8633 51.775 13.6992 51.7828 13.5352C51.7906 13.3711 51.7945 13.2305 51.7945 13.1133V7.86328H45.8883V13.1133C45.8883 13.2383 45.8883 13.3828 45.8883 13.5469C45.8883 13.7031 45.8922 13.8633 45.9 14.0273C45.9156 14.1914 45.9391 14.3516 45.9703 14.5078C46.0016 14.6641 46.0445 14.7969 46.0992 14.9062V14.9766L46.0875 15H44.2594C44.2516 15 44.2359 14.9961 44.2125 14.9883C44.1969 14.9805 44.1852 14.9766 44.1773 14.9766V14.9062C44.2242 14.7969 44.2633 14.6641 44.2945 14.5078C44.3336 14.3516 44.3609 14.1914 44.3766 14.0273C44.4 13.8633 44.4156 13.6992 44.4234 13.5352C44.4313 13.3711 44.4352 13.2305 44.4352 13.1133V2.77734C44.4352 2.66016 44.4313 2.52344 44.4234 2.36719C44.4156 2.20312 44.4 2.03516 44.3766 1.86328C44.3609 1.69141 44.3336 1.53125 44.2945 1.38281C44.2633 1.22656 44.2242 1.09375 44.1773 0.984375V0.914062C44.1852 0.914062 44.1969 0.910156 44.2125 0.902344C44.2359 0.894531 44.2516 0.890625 44.2594 0.890625H46.0523L46.0875 0.914062H46.0992V0.984375C46.0445 1.10156 46.0016 1.23828 45.9703 1.39453C45.9469 1.54297 45.9273 1.69922 45.9117 1.86328C45.9039 2.02734 45.8961 2.1875 45.8883 2.34375C45.8883 2.5 45.8883 2.64453 45.8883 2.77734V7.03125ZM64.6055 0.890625L64.6875 0.925781L64.9453 1.95703L64.9219 2.03906L64.8516 2.05078C64.5938 1.96484 64.3281 1.89453 64.0547 1.83984C63.7812 1.77734 63.5078 1.74609 63.2344 1.74609H60.9141V13.1133C60.9141 13.2383 60.9141 13.3828 60.9141 13.5469C60.9219 13.7109 60.9297 13.875 60.9375 14.0391C60.9531 14.2031 60.9766 14.3633 61.0078 14.5195C61.0391 14.668 61.082 14.7969 61.1367 14.9062V14.9766L61.1133 15H59.2852C59.2773 15 59.2617 14.9961 59.2383 14.9883C59.2227 14.9805 59.2109 14.9766 59.2031 14.9766V14.9062C59.25 14.7969 59.2891 14.6641 59.3203 14.5078C59.3516 14.3516 59.3789 14.1914 59.4023 14.0273C59.4258 13.8633 59.4414 13.6992 59.4492 13.5352C59.457 13.3711 59.4609 13.2305 59.4609 13.1133V1.74609H57.1758C56.9023 1.74609 56.6289 1.77734 56.3555 1.83984C56.0898 1.89453 55.8281 1.96484 55.5703 2.05078L55.4883 2.03906L55.4766 1.95703L55.7227 0.925781L55.8047 0.890625H64.6055ZM73.6547 0.65625C74.3266 0.65625 74.9789 0.742187 75.6117 0.914062C76.2445 1.08594 76.8344 1.32812 77.3812 1.64062C77.9359 1.95313 78.4398 2.33203 78.893 2.77734C79.3461 3.22266 79.7328 3.71484 80.0531 4.25391C80.3812 4.79297 80.6352 5.37891 80.8148 6.01172C80.9945 6.63672 81.0844 7.28906 81.0844 7.96875C81.0844 8.64844 80.9945 9.30078 80.8148 9.92578C80.6352 10.543 80.3812 11.1211 80.0531 11.6602C79.725 12.1992 79.3305 12.6914 78.8695 13.1367C78.4164 13.5742 77.9125 13.9492 77.3578 14.2617C76.8109 14.5742 76.2211 14.8164 75.5883 14.9883C74.9633 15.1602 74.3187 15.2461 73.6547 15.2461C72.9828 15.2461 72.3344 15.1602 71.7094 14.9883C71.0922 14.8164 70.5102 14.5742 69.9633 14.2617C69.4164 13.9414 68.9164 13.5625 68.4633 13.125C68.0102 12.6797 67.6195 12.1875 67.2914 11.6484C66.9711 11.1094 66.7211 10.5312 66.5414 9.91406C66.3617 9.28906 66.2719 8.64062 66.2719 7.96875C66.2719 7.28906 66.3578 6.63672 66.5297 6.01172C66.7094 5.38672 66.9594 4.80469 67.2797 4.26562C67.6078 3.71875 67.9945 3.22656 68.4398 2.78906C68.893 2.34375 69.393 1.96484 69.9398 1.65234C70.4867 1.33203 71.0727 1.08594 71.6977 0.914062C72.3227 0.742187 72.975 0.65625 73.6547 0.65625ZM73.6547 1.25391C72.7719 1.25391 71.9828 1.45312 71.2875 1.85156C70.5922 2.25 70.0023 2.76953 69.518 3.41016C69.0414 4.05078 68.6742 4.76953 68.4164 5.56641C68.1664 6.36328 68.0414 7.16406 68.0414 7.96875C68.0414 8.50781 68.0961 9.04688 68.2055 9.58594C68.3227 10.1172 68.4906 10.6328 68.7094 11.1328C68.9281 11.625 69.1977 12.0859 69.518 12.5156C69.8461 12.9453 70.2172 13.3203 70.6312 13.6406C71.0453 13.9531 71.5062 14.1992 72.0141 14.3789C72.5219 14.5586 73.0687 14.6484 73.6547 14.6484C74.2406 14.6484 74.7836 14.5586 75.2836 14.3789C75.7914 14.1914 76.2523 13.9414 76.6664 13.6289C77.0805 13.3086 77.4477 12.9336 77.768 12.5039C78.0883 12.0742 78.3578 11.6133 78.5766 11.1211C78.8031 10.6211 78.9711 10.1055 79.0805 9.57422C79.1977 9.03516 79.2562 8.5 79.2562 7.96875C79.2562 7.4375 79.1977 6.90234 79.0805 6.36328C78.9711 5.82422 78.807 5.30859 78.5883 4.81641C78.3695 4.31641 78.0961 3.85156 77.768 3.42188C77.4477 2.98438 77.0805 2.60547 76.6664 2.28516C76.2523 1.96484 75.7914 1.71484 75.2836 1.53516C74.7836 1.34766 74.2406 1.25391 73.6547 1.25391ZM84.2273 14.9062C84.3367 14.6797 84.407 14.4492 84.4383 14.2148C84.4773 13.9805 84.4969 13.7422 84.4969 13.5L84.5086 2.40234C84.4539 2.34766 84.3562 2.25 84.2156 2.10938C84.075 1.96875 83.9266 1.82031 83.7703 1.66406C83.6219 1.5 83.4852 1.34766 83.3602 1.20703C83.2352 1.06641 83.1648 0.972656 83.1492 0.925781L83.2312 0.890625H85.5164L85.575 0.960938C85.575 1.07031 85.5984 1.19531 85.6453 1.33594C85.6922 1.46875 85.7508 1.57813 85.8211 1.66406L94.8445 12.6445V2.36719C94.8445 2.13281 94.8211 1.89844 94.7742 1.66406C94.7352 1.42187 94.6609 1.19531 94.5516 0.984375V0.914062C94.6687 0.875 94.8055 0.859375 94.9617 0.867188C95.1258 0.875 95.2703 0.878906 95.3953 0.878906C95.4656 0.878906 95.532 0.890625 95.5945 0.914062C95.5555 1.16406 95.5164 1.41406 95.4773 1.66406C95.4461 1.90625 95.4305 2.15234 95.4305 2.40234V15.5039L95.3836 15.5859L95.3133 15.5625L85.2 3.25781V13.5C85.2 13.7422 85.2234 13.9805 85.2703 14.2148C85.325 14.4492 85.3953 14.6797 85.4812 14.9062L85.4578 14.9766L85.4227 15C85.2664 15 85.1102 15 84.9539 15C84.7977 15.0078 84.6414 15.0117 84.4852 15.0117C84.4461 15.0117 84.4031 15.0078 84.3562 15C84.3094 15 84.2664 14.9922 84.2273 14.9766V14.9062ZM5.26172 24.2539C4.87109 24.2539 4.51172 24.3008 4.18359 24.3945C3.86328 24.4883 3.58594 24.6328 3.35156 24.8281C3.11719 25.0234 2.93359 25.2734 2.80078 25.5781C2.66797 25.8828 2.60156 26.2422 2.60156 26.6562C2.60156 27.0781 2.72266 27.4609 2.96484 27.8047C3.20703 28.1484 3.49609 28.4336 3.83203 28.6602L7.35938 31.0391C7.92969 31.4297 8.35547 31.8672 8.63672 32.3516C8.91797 32.8359 9.05859 33.4297 9.05859 34.1328C9.05859 34.7188 8.95312 35.2656 8.74219 35.7734C8.53125 36.2734 8.24219 36.707 7.875 37.0742C7.50781 37.4414 7.07031 37.7305 6.5625 37.9414C6.0625 38.1523 5.51953 38.2578 4.93359 38.2578C4.70703 38.2578 4.45312 38.2266 4.17188 38.1641C3.89844 38.1094 3.61719 38.0391 3.32812 37.9531C3.04688 37.8594 2.76562 37.7656 2.48438 37.6719C2.21094 37.5703 1.96875 37.4805 1.75781 37.4023C1.74219 37.3789 1.72656 37.2812 1.71094 37.1094C1.70312 36.9297 1.69141 36.7305 1.67578 36.5117C1.66797 36.293 1.65625 36.0898 1.64062 35.9023C1.63281 35.707 1.62891 35.582 1.62891 35.5273L1.66406 35.4805L1.74609 35.5156C1.96484 35.8047 2.19922 36.0742 2.44922 36.3242C2.70703 36.5664 2.98047 36.7773 3.26953 36.957C3.55859 37.1289 3.86719 37.2656 4.19531 37.3672C4.52344 37.4688 4.875 37.5195 5.25 37.5195C5.55469 37.5195 5.85938 37.4531 6.16406 37.3203C6.47656 37.1875 6.75781 37.0078 7.00781 36.7812C7.25781 36.5547 7.46094 36.2969 7.61719 36.0078C7.77344 35.7188 7.85156 35.4141 7.85156 35.0938C7.85156 34.5938 7.75 34.1094 7.54688 33.6406C7.34375 33.1719 7.02734 32.7969 6.59766 32.5156L3.02344 30.1719C2.78906 30.0156 2.55859 29.8398 2.33203 29.6445C2.11328 29.4414 1.91797 29.2227 1.74609 28.9883C1.57422 28.7539 1.43359 28.5039 1.32422 28.2383C1.22266 27.9648 1.17188 27.6758 1.17188 27.3711C1.17188 26.793 1.28125 26.2734 1.5 25.8125C1.72656 25.3516 2.02734 24.9609 2.40234 24.6406C2.78516 24.3203 3.22266 24.0781 3.71484 23.9141C4.21484 23.7422 4.73828 23.6562 5.28516 23.6562C5.50391 23.6562 5.72266 23.6719 5.94141 23.7031C6.16797 23.7344 6.38672 23.7695 6.59766 23.8086C6.81641 23.8477 7.03516 23.8828 7.25391 23.9141C7.47266 23.9453 7.69531 23.9609 7.92188 23.9609L7.96875 24.0078C8.03906 24.1953 8.08984 24.3906 8.12109 24.5938C8.15234 24.7891 8.16797 24.9883 8.16797 25.1914L8.12109 25.25H8.05078C7.64453 24.9531 7.20312 24.7148 6.72656 24.5352C6.25781 24.3477 5.76953 24.2539 5.26172 24.2539ZM20.2992 23.8906L20.3813 23.9258L20.6391 24.957L20.6156 25.0391L20.5453 25.0508C20.2875 24.9648 20.0219 24.8945 19.7484 24.8398C19.475 24.7773 19.2016 24.7461 18.9281 24.7461H16.6078V36.1133C16.6078 36.2383 16.6078 36.3828 16.6078 36.5469C16.6156 36.7109 16.6234 36.875 16.6313 37.0391C16.6469 37.2031 16.6703 37.3633 16.7016 37.5195C16.7328 37.668 16.7758 37.7969 16.8305 37.9062V37.9766L16.807 38H14.9789C14.9711 38 14.9555 37.9961 14.932 37.9883C14.9164 37.9805 14.9047 37.9766 14.8969 37.9766V37.9062C14.9438 37.7969 14.9828 37.6641 15.0141 37.5078C15.0453 37.3516 15.0727 37.1914 15.0961 37.0273C15.1195 36.8633 15.1352 36.6992 15.143 36.5352C15.1508 36.3711 15.1547 36.2305 15.1547 36.1133V24.7461H12.8695C12.5961 24.7461 12.3227 24.7773 12.0492 24.8398C11.7836 24.8945 11.5219 24.9648 11.2641 25.0508L11.182 25.0391L11.1703 24.957L11.4164 23.9258L11.4984 23.8906H20.2992ZM18.532 37.9766L18.4969 37.9531V37.8828C18.6063 37.7578 18.7195 37.6328 18.8367 37.5078C18.9539 37.375 19.0477 37.2305 19.118 37.0742L25.0594 24.5703C24.9969 24.4531 24.9227 24.3438 24.8367 24.2422C24.7508 24.1406 24.6648 24.0391 24.5789 23.9375V23.9258L24.6141 23.8906H26.5125L26.5594 23.9258L31.8563 36.1602C32.1297 36.7773 32.493 37.3594 32.9461 37.9062L32.9695 37.9766C32.9617 37.9766 32.95 37.9805 32.9344 37.9883C32.9188 37.9961 32.907 38 32.8992 38C32.5008 38 32.1102 37.9961 31.7273 37.9883C31.3445 37.9727 30.9539 37.9688 30.5555 37.9766C30.5398 37.7031 30.5164 37.4375 30.4852 37.1797C30.4539 36.9141 30.3836 36.6562 30.2742 36.4062L27.0398 28.9414H23.7234L20.1023 36.6992C20.0398 36.832 19.9813 36.9727 19.9266 37.1211C19.8797 37.2617 19.8563 37.4102 19.8563 37.5664C19.8563 37.6289 19.8602 37.6914 19.868 37.7539C19.8758 37.8086 19.8875 37.8672 19.9031 37.9297L19.8914 37.9766L19.868 38L18.532 37.9766ZM26.7938 28.3438C26.5672 27.8359 26.325 27.332 26.0672 26.832C25.8094 26.3242 25.6102 25.7969 25.4695 25.25L23.9813 28.3438H26.7938ZM30.4406 24.0078L30.4992 23.9141H32.7023C32.7102 23.9141 32.718 23.918 32.7258 23.9258C32.7336 23.9258 32.7414 23.9258 32.7492 23.9258C32.7414 24.0195 32.7258 24.1133 32.7023 24.207C32.6789 24.3008 32.6672 24.3945 32.6672 24.4883C32.6672 24.6836 32.7102 24.8789 32.7961 25.0742L35.7141 31.8594C35.7844 31.7031 35.9172 31.4219 36.1125 31.0156C36.3078 30.6094 36.5305 30.1445 36.7805 29.6211C37.0305 29.0977 37.2883 28.5469 37.5539 27.9688C37.8273 27.3906 38.0734 26.8555 38.2922 26.3633C38.5187 25.8633 38.7023 25.4375 38.843 25.0859C38.9914 24.7344 39.0656 24.5234 39.0656 24.4531C39.0656 24.375 39.0539 24.2969 39.0305 24.2188C39.007 24.1406 38.9758 24.0703 38.9367 24.0078V23.9258C38.9523 23.9258 38.9641 23.9258 38.9719 23.9258C38.9875 23.918 39.0031 23.9141 39.0187 23.9141H40.3312C40.3391 23.9141 40.3508 23.918 40.3664 23.9258C40.3898 23.9336 40.4055 23.9375 40.4133 23.9375C40.3039 24.0703 40.1945 24.207 40.0852 24.3477C39.9758 24.4883 39.8859 24.6367 39.8156 24.793L36.2414 32.5156V36.1133C36.2414 36.2461 36.2414 36.3906 36.2414 36.5469C36.2414 36.7031 36.2453 36.8633 36.2531 37.0273C36.2687 37.1914 36.2883 37.3516 36.3117 37.5078C36.343 37.6562 36.3859 37.7891 36.4406 37.9062V37.9766L36.4289 38H34.6008C34.593 38 34.5812 37.9961 34.5656 37.9883C34.55 37.9805 34.5383 37.9766 34.5305 37.9766V37.9062C34.5773 37.7969 34.6164 37.6641 34.6477 37.5078C34.6789 37.3516 34.7023 37.1914 34.718 37.0273C34.7414 36.8633 34.757 36.7031 34.7648 36.5469C34.7727 36.3828 34.7766 36.2383 34.7766 36.1133V33.3594L31.1086 25.0859C31.0852 25.0312 31.0422 24.9531 30.9797 24.8516C30.925 24.7422 30.8664 24.6328 30.8039 24.5234C30.7414 24.4062 30.675 24.3008 30.6047 24.207C30.5422 24.1133 30.4875 24.0469 30.4406 24.0078ZM46.5211 24.2539C46.1305 24.2539 45.7711 24.3008 45.443 24.3945C45.1227 24.4883 44.8453 24.6328 44.6109 24.8281C44.3766 25.0234 44.193 25.2734 44.0602 25.5781C43.9273 25.8828 43.8609 26.2422 43.8609 26.6562C43.8609 27.0781 43.982 27.4609 44.2242 27.8047C44.4664 28.1484 44.7555 28.4336 45.0914 28.6602L48.6188 31.0391C49.1891 31.4297 49.6148 31.8672 49.8961 32.3516C50.1773 32.8359 50.318 33.4297 50.318 34.1328C50.318 34.7188 50.2125 35.2656 50.0016 35.7734C49.7906 36.2734 49.5016 36.707 49.1344 37.0742C48.7672 37.4414 48.3297 37.7305 47.8219 37.9414C47.3219 38.1523 46.7789 38.2578 46.193 38.2578C45.9664 38.2578 45.7125 38.2266 45.4313 38.1641C45.1578 38.1094 44.8766 38.0391 44.5875 37.9531C44.3063 37.8594 44.025 37.7656 43.7438 37.6719C43.4703 37.5703 43.2281 37.4805 43.0172 37.4023C43.0016 37.3789 42.9859 37.2812 42.9703 37.1094C42.9625 36.9297 42.9508 36.7305 42.9352 36.5117C42.9273 36.293 42.9156 36.0898 42.9 35.9023C42.8922 35.707 42.8883 35.582 42.8883 35.5273L42.9234 35.4805L43.0055 35.5156C43.2242 35.8047 43.4586 36.0742 43.7086 36.3242C43.9664 36.5664 44.2398 36.7773 44.5289 36.957C44.818 37.1289 45.1266 37.2656 45.4547 37.3672C45.7828 37.4688 46.1344 37.5195 46.5094 37.5195C46.8141 37.5195 47.1188 37.4531 47.4234 37.3203C47.7359 37.1875 48.0172 37.0078 48.2672 36.7812C48.5172 36.5547 48.7203 36.2969 48.8766 36.0078C49.0328 35.7188 49.1109 35.4141 49.1109 35.0938C49.1109 34.5938 49.0094 34.1094 48.8063 33.6406C48.6031 33.1719 48.2867 32.7969 47.857 32.5156L44.2828 30.1719C44.0484 30.0156 43.818 29.8398 43.5914 29.6445C43.3727 29.4414 43.1773 29.2227 43.0055 28.9883C42.8336 28.7539 42.693 28.5039 42.5836 28.2383C42.482 27.9648 42.4313 27.6758 42.4313 27.3711C42.4313 26.793 42.5406 26.2734 42.7594 25.8125C42.9859 25.3516 43.2867 24.9609 43.6617 24.6406C44.0445 24.3203 44.482 24.0781 44.9742 23.9141C45.4742 23.7422 45.9977 23.6562 46.5445 23.6562C46.7633 23.6562 46.982 23.6719 47.2008 23.7031C47.4273 23.7344 47.6461 23.7695 47.857 23.8086C48.0758 23.8477 48.2945 23.8828 48.5133 23.9141C48.732 23.9453 48.9547 23.9609 49.1813 23.9609L49.2281 24.0078C49.2984 24.1953 49.3492 24.3906 49.3805 24.5938C49.4117 24.7891 49.4273 24.9883 49.4273 25.1914L49.3805 25.25H49.3102C48.9039 24.9531 48.4625 24.7148 47.9859 24.5352C47.5172 24.3477 47.0289 24.2539 46.5211 24.2539Z" fill="black"/>
</svg>
